PathFileType	4	(X/Y/Z)	c:/Users/goper/Files/vsCode/490R/osim_files/A06/A06_Static.trc
DataRate	CameraRate	NumFrames	NumMarkers	Units                	OrigDataRate	OrigDataStartFrame	OrigNumFrames
120.00	120.00	6	36	mm	120.0	987	1315
                Frame#	Time	LPSIS			LASIS			LTH1			LTH2			LTH3			LTH4			LLFE			LMFE			LSH1			LSH2			LSH3			LSH4			LLMAL			LMMAL			LCAL			LMTP5			LTOE			LMTP1			RPSIS			RASIS			RTH1			RTH2			RTH3			RTH4			RLFE			RMFE			RSH1			RSH2			RSH3			RSH4			RLMAL			RMMAL			RCAL			RMTP1			RTOE			RMTP5		
		X1	Y1	Z1	X2	Y2	Z2	X3	Y3	Z3	X4	Y4	Z4	X5	Y5	Z5	X6	Y6	Z6	X7	Y7	Z7	X8	Y8	Z8	X9	Y9	Z9	X10	Y10	Z10	X11	Y11	Z11	X12	Y12	Z12	X13	Y13	Z13	X14	Y14	Z14	X15	Y15	Z15	X16	Y16	Z16	X17	Y17	Z17	X18	Y18	Z18	X19	Y19	Z19	X20	Y20	Z20	X21	Y21	Z21	X22	Y22	Z22	X23	Y23	Z23	X24	Y24	Z24	X25	Y25	Z25	X26	Y26	Z26	X27	Y27	Z27	X28	Y28	Z28	X29	Y29	Z29	X30	Y30	Z30	X31	Y31	Z31	X32	Y32	Z32	X33	Y33	Z33	X34	Y34	Z34	X35	Y35	Z35	X36	Y36	Z36

987	8.21667	-301.80310	984.66321	426.63400	-115.46303	949.54559	347.90384	-213.92104	598.16449	299.44632	-209.80708	555.62195	304.22833	-150.78816	594.26392	314.43097	-158.10019	552.22156	316.64417	-191.57523	479.70117	321.37524	-194.38358	469.36591	429.41003	-258.53510	389.42792	303.69888	-253.83606	343.91809	296.26212	-196.30130	388.59769	309.78995	-199.38745	346.73990	304.43954	-253.90450	92.56291	333.32104	-235.26543	110.89242	416.32968	-314.78592	77.75195	383.54245	-134.65300	42.39437	312.54309	-94.35353	62.83706	367.89417	-118.10373	55.50425	407.23145	-292.03088	996.00848	557.76801	-116.79163	953.73212	611.05359	-245.82898	601.17212	649.81165	-242.78517	557.37665	651.89441	-183.31519	597.18451	641.48450	-189.98010	553.26947	646.59259	-228.90190	439.98685	630.43524	-228.94388	437.85260	541.40521	-262.48111	286.13599	623.78143	-265.55798	238.61171	624.22607	-203.26964	277.80972	612.44342	-214.50685	230.77405	618.42609	-280.49454	102.67715	638.50073	-267.69867	101.51685	555.23633	-338.12802	81.18865	592.29822	-136.51015	53.97107	562.25464	-120.84660	65.23682	602.36694	-147.63356	51.75211	649.95703
988	8.22500	-301.76697	984.66376	426.65353	-115.40767	949.51294	347.91992	-213.92960	598.18439	299.46356	-209.81183	555.64520	304.22379	-150.79478	594.27161	314.43301	-158.15219	552.20667	316.65540	-191.62236	479.70508	321.38138	-194.45123	469.36914	429.44437	-258.59561	389.43848	303.71875	-253.85251	343.91998	296.27399	-196.32979	388.59280	309.82010	-199.40886	346.75763	304.45642	-253.91333	92.55534	333.32639	-235.32848	110.88083	416.33932	-314.77313	77.75585	383.52682	-134.71318	42.36915	312.54053	-94.39032	62.82769	367.91016	-118.16820	55.48753	407.26199	-292.06485	996.02997	557.77606	-116.78970	953.73035	611.08502	-245.88054	601.17426	649.82288	-244.42789	558.43793	650.67255	-183.39989	597.23450	641.74200	-190.00401	553.25751	646.62262	-228.99268	439.98422	630.44763	-228.90962	437.84479	541.41644	-262.54233	286.13779	623.80292	-265.61938	238.61234	624.23413	-203.39178	277.85187	612.08691	-214.54141	230.79198	618.44421	-280.55612	102.67538	638.49585	-267.67847	101.51279	555.23608	-338.28659	81.26978	592.29053	-136.50504	53.97003	562.26392	-120.85378	65.21027	602.36237	-147.68495	51.73159	649.95435
989	8.23333	-301.71057	984.66681	426.64728	-115.34818	949.49951	347.95337	-213.95393	598.19275	299.49255	-209.86691	555.65997	304.25333	-150.80788	594.26678	314.44229	-158.16847	552.19598	316.66779	-191.63579	479.70233	321.38663	-194.38458	469.33054	429.46390	-258.59399	389.44772	303.74353	-253.87180	343.92206	296.28525	-196.35625	388.58551	309.82309	-199.41640	346.76733	304.45853	-253.89247	92.55607	333.33057	-235.25426	110.83287	416.35049	-314.80469	77.75893	383.50354	-134.65031	42.34838	312.54675	-94.35643	62.78302	367.92114	-118.11304	55.44786	407.27155	-292.09781	995.97455	557.85938	-116.69964	953.69128	611.10132	-245.76158	601.10748	649.85120	-244.28792	558.37616	650.71423	-183.30296	597.16479	641.78577	-189.90471	553.23535	646.65082	-228.81599	439.94135	630.47034	-228.88113	437.82819	541.42566	-262.41208	286.09882	623.81512	-265.52335	238.56970	624.25232	-203.23677	277.77979	612.44745	-214.47440	230.74188	618.45593	-280.45837	102.60551	638.53662	-267.68228	101.50320	555.22327	-338.11612	81.16183	592.32043	-136.47765	53.97824	562.25220	-120.84196	65.19696	602.37177	-147.63139	51.70116	649.98627
990	8.24167	-301.61261	984.65851	426.68564	-115.27601	949.48303	347.98746	-213.94695	598.19708	299.51877	-209.87076	555.66473	304.26505	-150.85803	594.25824	314.45236	-158.16757	552.20514	316.66208	-191.66559	479.70038	321.38934	-194.35760	469.26300	429.49628	-258.61368	389.43930	303.77603	-253.90128	343.92462	296.29456	-196.38873	388.58728	309.83688	-199.46582	346.76221	304.48663	-253.89510	92.55166	333.32938	-235.23235	110.77479	416.38168	-314.77463	77.73348	383.52222	-134.65387	42.29675	312.56064	-94.36230	62.70921	367.95709	-118.11560	55.38328	407.29663	-291.94348	995.88336	557.94415	-116.66383	953.66357	611.14294	-245.66939	601.07104	649.90344	-242.64378	557.27472	651.99329	-183.19897	597.09723	641.57202	-189.88762	553.17615	646.70544	-228.76064	439.90192	630.51648	-228.85326	437.82690	541.43958	-262.39374	286.07120	623.84033	-265.46643	238.52606	624.28741	-203.32127	277.73911	612.14862	-214.46794	230.69205	618.48621	-280.45715	102.55704	638.55377	-267.68884	101.48983	555.25244	-338.03326	81.05835	592.36414	-136.50430	53.95854	562.25964	-120.84644	65.17088	602.37805	-147.64394	51.66929	650.01324
991	8.25000	-301.57867	984.64905	426.72336	-115.22668	949.48413	348.01587	-213.96675	598.20502	299.55075	-209.90475	555.66449	304.32578	-150.86125	594.27667	314.46552	-158.24620	552.18964	316.68768	-191.71028	479.70126	321.40323	-194.41103	469.28937	429.52451	-258.64478	389.45166	303.81793	-253.92883	343.93881	296.33829	-196.42970	388.59164	309.86993	-199.48709	346.76828	304.49969	-253.88165	92.53426	333.34064	-235.28799	110.80338	416.38922	-314.79398	77.74268	383.54666	-134.69164	42.31497	312.55585	-94.37980	62.72207	367.95605	-118.16798	55.40137	407.27316	-291.99881	995.94666	557.94562	-116.62519	953.66449	611.16302	-245.67960	601.08954	649.93329	-244.25931	558.33563	650.77002	-183.26001	597.13074	641.86328	-189.89783	553.19067	646.72186	-228.78638	439.89966	630.53528	-228.82388	437.82495	541.45312	-262.43845	286.07761	623.84241	-265.52310	238.55013	624.28467	-203.26328	277.74615	612.49939	-214.50084	230.69846	618.49713	-280.50378	102.56452	638.55304	-267.65735	101.48537	555.24707	-338.11102	81.11623	592.35944	-136.48296	53.95424	562.25909	-120.84309	65.17892	602.38324	-147.68324	51.67820	650.01740
992	8.25833	-301.48978	984.67090	426.74838	-115.16061	949.48505	348.05927	-213.97147	598.24310	299.58551	-209.91339	555.69403	304.34274	-150.90219	594.27618	314.47845	-158.27759	552.20929	316.69650	-191.71913	479.73196	321.43069	-194.28632	469.33746	429.49637	-258.59650	389.49313	303.81003	-253.94719	343.94983	296.36057	-196.42715	388.62265	309.88852	-199.52414	346.79657	304.51923	-253.87785	92.54998	333.35120	-235.20184	110.83496	416.34711	-314.75052	77.74869	383.55161	-134.61409	42.35017	312.53778	-94.32722	62.75201	367.92834	-118.07092	55.44276	407.24780	-291.82587	995.96777	557.93939	-116.51318	953.68274	611.16602	-245.55368	601.12585	649.92065	-243.93410	558.42181	650.77148	-183.15425	597.14758	641.83838	-189.80133	553.21130	646.71027	-228.67020	439.93677	630.54248	-228.79225	437.83975	541.47180	-262.33801	286.10370	623.85632	-265.40515	238.57622	624.29199	-203.17149	277.78592	612.48608	-214.38710	230.73372	618.48529	-280.40439	102.61456	638.54138	-267.69250	101.49214	555.27173	-338.03049	81.10555	592.32855	-136.49072	53.95564	562.26465	-120.85909	65.15665	602.41211	-147.60945	51.70818	649.97125
